# Blender v3.0.0 OBJ File: 'ortho_blender_setup.blend'
# www.blender.org
mtllib ortho_blender_setup.mtl
o Cube
v 1.000000 1.000000 -1.000000
v 1.000000 -1.000000 -1.000000
v 1.000000 1.000000 1.000000
v 1.000000 -1.000000 1.000000
v -1.000000 1.000000 -1.000000
v -1.000000 -1.000000 -1.000000
v -1.000000 1.000000 1.000000
v -1.000000 -1.000000 1.000000
v -0.619132 -0.619132 7.571678
v -0.619132 0.619132 7.571678
v 0.619132 0.619132 7.571678
v 0.619132 -0.619132 7.571678
v 1.000000 -1.000000 -3.194860
v -1.000000 -1.000000 -3.194860
v 1.000000 1.000000 -3.194860
v -1.000000 1.000000 -3.194860
vt 0.625000 0.500000
vt 0.875000 0.500000
vt 0.875000 0.750000
vt 0.625000 0.750000
vt 0.875000 0.750000
vt 0.625000 0.750000
vt 0.375000 0.000000
vt 0.625000 0.000000
vt 0.625000 0.250000
vt 0.375000 0.250000
vt 0.125000 0.500000
vt 0.375000 0.500000
vt 0.375000 0.750000
vt 0.125000 0.750000
vt 0.625000 0.500000
vt 0.875000 0.500000
vt 0.375000 0.750000
vt 0.625000 1.000000
vt 0.375000 1.000000
vt 0.375000 0.000000
vt 0.625000 0.000000
vt 0.125000 0.750000
vt 0.375000 0.250000
vt 0.625000 0.250000
vt 0.375000 0.500000
vt 0.125000 0.500000
vn 0.0000 1.0000 0.0000
vn 0.0000 0.9983 0.0579
vn -1.0000 0.0000 0.0000
vn 0.0000 -1.0000 0.0000
vn 1.0000 0.0000 0.0000
vn 0.0000 0.0000 1.0000
vn 0.9983 0.0000 0.0579
vn -0.9983 0.0000 0.0579
vn 0.0000 -0.9983 0.0579
vn 0.0000 0.0000 -1.0000
usemtl Material
s off
f 1/1/1 5/2/1 7/3/1 3/4/1
f 3/4/2 7/3/2 10/5/2 11/6/2
f 8/7/3 7/8/3 5/9/3 6/10/3
f 6/11/4 2/12/4 4/13/4 8/14/4
f 2/12/5 1/1/5 3/4/5 4/13/5
f 5/2/1 1/1/1 15/15/1 16/16/1
f 12/17/6 11/6/6 10/18/6 9/19/6
f 4/13/7 3/4/7 11/6/7 12/17/7
f 7/8/8 8/7/8 9/20/8 10/21/8
f 8/14/9 4/13/9 12/17/9 9/22/9
f 14/23/10 16/24/10 15/15/10 13/25/10
f 1/1/5 2/12/5 13/25/5 15/15/5
f 6/10/3 5/9/3 16/24/3 14/23/3
f 2/12/4 6/11/4 14/26/4 13/25/4
o Sphere
v 0.000000 0.707107 -2.537340
v 0.000000 -0.000000 -2.830234
v 0.000000 -0.707107 -2.537340
v 0.500000 0.707107 -2.330234
v 0.707107 -0.000000 -2.537340
v 0.500000 -0.707107 -2.330234
v 0.707107 0.707107 -1.830233
v 1.000000 -0.000000 -1.830234
v 0.707107 -0.707107 -1.830233
v 0.500000 0.707107 -1.330234
v 0.707107 -0.000000 -1.123127
v 0.500000 -0.707107 -1.330234
v 0.000000 -1.000000 -1.830233
v 0.000000 0.707107 -1.123127
v 0.000000 -0.000000 -0.830234
v 0.000000 -0.707107 -1.123127
v -0.000000 1.000000 -1.830233
v -0.500000 0.707107 -1.330234
v -0.707107 -0.000000 -1.123127
v -0.500000 -0.707107 -1.330234
v -0.707107 0.707107 -1.830233
v -1.000000 -0.000000 -1.830234
v -0.707107 -0.707107 -1.830233
v -0.500000 0.707107 -2.330233
v -0.707107 -0.000000 -2.537340
v -0.500000 -0.707107 -2.330233
vt 0.687500 0.000000
vt 0.750000 0.250000
vt 0.625000 0.250000
vt 0.750000 0.500000
vt 0.750000 0.750000
vt 0.625000 0.750000
vt 0.625000 0.500000
vt 0.687500 1.000000
vt 0.562500 0.000000
vt 0.500000 0.250000
vt 0.500000 0.750000
vt 0.500000 0.500000
vt 0.562500 1.000000
vt 0.437500 0.000000
vt 0.375000 0.250000
vt 0.375000 0.750000
vt 0.375000 0.500000
vt 0.437500 1.000000
vt 0.312500 0.000000
vt 0.250000 0.250000
vt 0.250000 0.750000
vt 0.250000 0.500000
vt 0.312500 1.000000
vt 0.187500 0.000000
vt 0.125000 0.250000
vt 0.125000 0.750000
vt 0.125000 0.500000
vt 0.187500 1.000000
vt 0.062500 1.000000
vt 0.000000 0.750000
vt 0.062500 0.000000
vt 0.000000 0.250000
vt 0.000000 0.500000
vt 1.000000 0.250000
vt 1.000000 0.500000
vt 0.875000 0.500000
vt 0.875000 0.250000
vt 1.000000 0.750000
vt 0.937500 1.000000
vt 0.875000 0.750000
vt 0.937500 0.000000
vt 0.812500 1.000000
vt 0.812500 0.000000
vn 0.1566 -0.9125 -0.3780
vn 0.3574 0.3574 -0.8629
vn 0.3574 -0.3574 -0.8629
vn 0.1566 0.9125 -0.3780
vn 0.3780 -0.9125 -0.1566
vn 0.8629 0.3574 -0.3574
vn 0.8629 -0.3574 -0.3574
vn 0.3780 0.9125 -0.1566
vn 0.3780 -0.9125 0.1566
vn 0.8629 0.3574 0.3574
vn 0.8629 -0.3574 0.3574
vn 0.3780 0.9125 0.1566
vn 0.1566 -0.9125 0.3780
vn 0.3574 0.3574 0.8629
vn 0.3574 -0.3574 0.8629
vn 0.1566 0.9125 0.3780
vn -0.1566 -0.9125 0.3780
vn -0.3574 0.3574 0.8629
vn -0.3574 -0.3574 0.8629
vn -0.1566 0.9125 0.3780
vn -0.3780 0.9125 0.1566
vn -0.3780 -0.9125 0.1566
vn -0.8629 0.3574 0.3574
vn -0.8629 -0.3574 0.3574
vn -0.8629 -0.3574 -0.3574
vn -0.3780 0.9125 -0.1566
vn -0.3780 -0.9125 -0.1566
vn -0.8629 0.3574 -0.3574
vn -0.3574 -0.3574 -0.8629
vn -0.1566 0.9125 -0.3780
vn -0.1566 -0.9125 -0.3780
vn -0.3574 0.3574 -0.8629
usemtl None
s off
f 29/27/11 19/28/11 22/29/11
f 18/30/12 17/31/12 20/32/12 21/33/12
f 19/28/13 18/30/13 21/33/13 22/29/13
f 17/31/14 33/34/14 20/32/14
f 29/35/15 22/29/15 25/36/15
f 21/33/16 20/32/16 23/37/16 24/38/16
f 22/29/17 21/33/17 24/38/17 25/36/17
f 20/32/18 33/39/18 23/37/18
f 29/40/19 25/36/19 28/41/19
f 24/38/20 23/37/20 26/42/20 27/43/20
f 25/36/21 24/38/21 27/43/21 28/41/21
f 23/37/22 33/44/22 26/42/22
f 29/45/23 28/41/23 32/46/23
f 27/43/24 26/42/24 30/47/24 31/48/24
f 28/41/25 27/43/25 31/48/25 32/46/25
f 26/42/26 33/49/26 30/47/26
f 29/50/27 32/46/27 36/51/27
f 31/48/28 30/47/28 34/52/28 35/53/28
f 32/46/29 31/48/29 35/53/29 36/51/29
f 30/47/30 33/54/30 34/52/30
f 34/52/31 33/55/31 37/56/31
f 29/57/32 36/51/32 39/58/32
f 35/53/33 34/52/33 37/56/33 38/59/33
f 36/51/34 35/53/34 38/59/34 39/58/34
f 39/60/35 38/61/35 41/62/35 42/63/35
f 37/64/36 33/65/36 40/66/36
f 29/67/37 39/60/37 42/63/37
f 38/61/38 37/64/38 40/66/38 41/62/38
f 42/63/39 41/62/39 18/30/39 19/28/39
f 40/66/40 33/68/40 17/31/40
f 29/69/41 42/63/41 19/28/41
f 41/62/42 40/66/42 17/31/42 18/30/42
o Sphere.001
v 2.000000 0.707107 -2.537340
v 2.000000 -0.000000 -2.830234
v 2.000000 -0.707107 -2.537340
v 2.500000 0.707107 -2.330234
v 2.707107 -0.000000 -2.537340
v 2.500000 -0.707107 -2.330234
v 2.707107 0.707107 -1.830233
v 3.000000 -0.000000 -1.830234
v 2.707107 -0.707107 -1.830233
v 2.500000 0.707107 -1.330234
v 2.707107 -0.000000 -1.123127
v 2.500000 -0.707107 -1.330234
v 2.000000 -1.000000 -1.830233
v 2.000000 0.707107 -1.123127
v 2.000000 -0.000000 -0.830234
v 2.000000 -0.707107 -1.123127
v 2.000000 1.000000 -1.830233
v 1.500000 0.707107 -1.330234
v 1.292893 -0.000000 -1.123127
v 1.500000 -0.707107 -1.330234
v 1.292893 0.707107 -1.830233
v 1.000000 -0.000000 -1.830234
v 1.292893 -0.707107 -1.830233
v 1.500000 0.707107 -2.330233
v 1.292893 -0.000000 -2.537340
v 1.500000 -0.707107 -2.330233
vt 0.687500 0.000000
vt 0.750000 0.250000
vt 0.625000 0.250000
vt 0.750000 0.500000
vt 0.750000 0.750000
vt 0.625000 0.750000
vt 0.625000 0.500000
vt 0.687500 1.000000
vt 0.562500 0.000000
vt 0.500000 0.250000
vt 0.500000 0.750000
vt 0.500000 0.500000
vt 0.562500 1.000000
vt 0.437500 0.000000
vt 0.375000 0.250000
vt 0.375000 0.750000
vt 0.375000 0.500000
vt 0.437500 1.000000
vt 0.312500 0.000000
vt 0.250000 0.250000
vt 0.250000 0.750000
vt 0.250000 0.500000
vt 0.312500 1.000000
vt 0.187500 0.000000
vt 0.125000 0.250000
vt 0.125000 0.750000
vt 0.125000 0.500000
vt 0.187500 1.000000
vt 0.062500 1.000000
vt 0.000000 0.750000
vt 0.062500 0.000000
vt 0.000000 0.250000
vt 0.000000 0.500000
vt 1.000000 0.250000
vt 1.000000 0.500000
vt 0.875000 0.500000
vt 0.875000 0.250000
vt 1.000000 0.750000
vt 0.937500 1.000000
vt 0.875000 0.750000
vt 0.937500 0.000000
vt 0.812500 1.000000
vt 0.812500 0.000000
vn 0.1566 -0.9125 -0.3780
vn 0.3574 0.3574 -0.8629
vn 0.3574 -0.3574 -0.8629
vn 0.1566 0.9125 -0.3780
vn 0.3780 -0.9125 -0.1566
vn 0.8629 0.3574 -0.3574
vn 0.8629 -0.3574 -0.3574
vn 0.3780 0.9125 -0.1566
vn 0.3780 -0.9125 0.1566
vn 0.8629 0.3574 0.3574
vn 0.8629 -0.3574 0.3574
vn 0.3780 0.9125 0.1566
vn 0.1566 -0.9125 0.3780
vn 0.3574 0.3574 0.8629
vn 0.3574 -0.3574 0.8629
vn 0.1566 0.9125 0.3780
vn -0.1566 -0.9125 0.3780
vn -0.3574 0.3574 0.8629
vn -0.3574 -0.3574 0.8629
vn -0.1566 0.9125 0.3780
vn -0.3780 0.9125 0.1566
vn -0.3780 -0.9125 0.1566
vn -0.8629 0.3574 0.3574
vn -0.8629 -0.3574 0.3574
vn -0.8629 -0.3574 -0.3574
vn -0.3780 0.9125 -0.1566
vn -0.3780 -0.9125 -0.1566
vn -0.8629 0.3574 -0.3574
vn -0.3574 -0.3574 -0.8629
vn -0.1566 0.9125 -0.3780
vn -0.1566 -0.9125 -0.3780
vn -0.3574 0.3574 -0.8629
usemtl None
s off
f 55/70/43 45/71/43 48/72/43
f 44/73/44 43/74/44 46/75/44 47/76/44
f 45/71/45 44/73/45 47/76/45 48/72/45
f 43/74/46 59/77/46 46/75/46
f 55/78/47 48/72/47 51/79/47
f 47/76/48 46/75/48 49/80/48 50/81/48
f 48/72/49 47/76/49 50/81/49 51/79/49
f 46/75/50 59/82/50 49/80/50
f 55/83/51 51/79/51 54/84/51
f 50/81/52 49/80/52 52/85/52 53/86/52
f 51/79/53 50/81/53 53/86/53 54/84/53
f 49/80/54 59/87/54 52/85/54
f 55/88/55 54/84/55 58/89/55
f 53/86/56 52/85/56 56/90/56 57/91/56
f 54/84/57 53/86/57 57/91/57 58/89/57
f 52/85/58 59/92/58 56/90/58
f 55/93/59 58/89/59 62/94/59
f 57/91/60 56/90/60 60/95/60 61/96/60
f 58/89/61 57/91/61 61/96/61 62/94/61
f 56/90/62 59/97/62 60/95/62
f 60/95/63 59/98/63 63/99/63
f 55/100/64 62/94/64 65/101/64
f 61/96/65 60/95/65 63/99/65 64/102/65
f 62/94/66 61/96/66 64/102/66 65/101/66
f 65/103/67 64/104/67 67/105/67 68/106/67
f 63/107/68 59/108/68 66/109/68
f 55/110/69 65/103/69 68/106/69
f 64/104/70 63/107/70 66/109/70 67/105/70
f 68/106/71 67/105/71 44/73/71 45/71/71
f 66/109/72 59/111/72 43/74/72
f 55/112/73 68/106/73 45/71/73
f 67/105/74 66/109/74 43/74/74 44/73/74
o Sphere.002
v -2.000000 0.707107 -2.537340
v -2.000000 -0.000000 -2.830234
v -2.000000 -0.707107 -2.537340
v -1.500000 0.707107 -2.330234
v -1.292893 -0.000000 -2.537340
v -1.500000 -0.707107 -2.330234
v -1.292893 0.707107 -1.830233
v -1.000000 -0.000000 -1.830234
v -1.292893 -0.707107 -1.830233
v -1.500000 0.707107 -1.330234
v -1.292893 -0.000000 -1.123127
v -1.500000 -0.707107 -1.330234
v -2.000000 -1.000000 -1.830233
v -2.000000 0.707107 -1.123127
v -2.000000 -0.000000 -0.830234
v -2.000000 -0.707107 -1.123127
v -2.000000 1.000000 -1.830233
v -2.500000 0.707107 -1.330234
v -2.707107 -0.000000 -1.123127
v -2.500000 -0.707107 -1.330234
v -2.707107 0.707107 -1.830233
v -3.000000 -0.000000 -1.830234
v -2.707107 -0.707107 -1.830233
v -2.500000 0.707107 -2.330233
v -2.707107 -0.000000 -2.537340
v -2.500000 -0.707107 -2.330233
vt 0.687500 0.000000
vt 0.750000 0.250000
vt 0.625000 0.250000
vt 0.750000 0.500000
vt 0.750000 0.750000
vt 0.625000 0.750000
vt 0.625000 0.500000
vt 0.687500 1.000000
vt 0.562500 0.000000
vt 0.500000 0.250000
vt 0.500000 0.750000
vt 0.500000 0.500000
vt 0.562500 1.000000
vt 0.437500 0.000000
vt 0.375000 0.250000
vt 0.375000 0.750000
vt 0.375000 0.500000
vt 0.437500 1.000000
vt 0.312500 0.000000
vt 0.250000 0.250000
vt 0.250000 0.750000
vt 0.250000 0.500000
vt 0.312500 1.000000
vt 0.187500 0.000000
vt 0.125000 0.250000
vt 0.125000 0.750000
vt 0.125000 0.500000
vt 0.187500 1.000000
vt 0.062500 1.000000
vt 0.000000 0.750000
vt 0.062500 0.000000
vt 0.000000 0.250000
vt 0.000000 0.500000
vt 1.000000 0.250000
vt 1.000000 0.500000
vt 0.875000 0.500000
vt 0.875000 0.250000
vt 1.000000 0.750000
vt 0.937500 1.000000
vt 0.875000 0.750000
vt 0.937500 0.000000
vt 0.812500 1.000000
vt 0.812500 0.000000
vn 0.1566 -0.9125 -0.3780
vn 0.3574 0.3574 -0.8629
vn 0.3574 -0.3574 -0.8629
vn 0.1566 0.9125 -0.3780
vn 0.3780 -0.9125 -0.1566
vn 0.8629 0.3574 -0.3574
vn 0.8629 -0.3574 -0.3574
vn 0.3780 0.9125 -0.1566
vn 0.3780 -0.9125 0.1566
vn 0.8629 0.3574 0.3574
vn 0.8629 -0.3574 0.3574
vn 0.3780 0.9125 0.1566
vn 0.1566 -0.9125 0.3780
vn 0.3574 0.3574 0.8629
vn 0.3574 -0.3574 0.8629
vn 0.1566 0.9125 0.3780
vn -0.1566 -0.9125 0.3780
vn -0.3574 0.3574 0.8629
vn -0.3574 -0.3574 0.8629
vn -0.1566 0.9125 0.3780
vn -0.3780 0.9125 0.1566
vn -0.3780 -0.9125 0.1566
vn -0.8629 0.3574 0.3574
vn -0.8629 -0.3574 0.3574
vn -0.8629 -0.3574 -0.3574
vn -0.3780 0.9125 -0.1566
vn -0.3780 -0.9125 -0.1566
vn -0.8629 0.3574 -0.3574
vn -0.3574 -0.3574 -0.8629
vn -0.1566 0.9125 -0.3780
vn -0.1566 -0.9125 -0.3780
vn -0.3574 0.3574 -0.8629
usemtl None
s off
f 81/113/75 71/114/75 74/115/75
f 70/116/76 69/117/76 72/118/76 73/119/76
f 71/114/77 70/116/77 73/119/77 74/115/77
f 69/117/78 85/120/78 72/118/78
f 81/121/79 74/115/79 77/122/79
f 73/119/80 72/118/80 75/123/80 76/124/80
f 74/115/81 73/119/81 76/124/81 77/122/81
f 72/118/82 85/125/82 75/123/82
f 81/126/83 77/122/83 80/127/83
f 76/124/84 75/123/84 78/128/84 79/129/84
f 77/122/85 76/124/85 79/129/85 80/127/85
f 75/123/86 85/130/86 78/128/86
f 81/131/87 80/127/87 84/132/87
f 79/129/88 78/128/88 82/133/88 83/134/88
f 80/127/89 79/129/89 83/134/89 84/132/89
f 78/128/90 85/135/90 82/133/90
f 81/136/91 84/132/91 88/137/91
f 83/134/92 82/133/92 86/138/92 87/139/92
f 84/132/93 83/134/93 87/139/93 88/137/93
f 82/133/94 85/140/94 86/138/94
f 86/138/95 85/141/95 89/142/95
f 81/143/96 88/137/96 91/144/96
f 87/139/97 86/138/97 89/142/97 90/145/97
f 88/137/98 87/139/98 90/145/98 91/144/98
f 91/146/99 90/147/99 93/148/99 94/149/99
f 89/150/100 85/151/100 92/152/100
f 81/153/101 91/146/101 94/149/101
f 90/147/102 89/150/102 92/152/102 93/148/102
f 94/149/103 93/148/103 70/116/103 71/114/103
f 92/152/104 85/154/104 69/117/104
f 81/155/105 94/149/105 71/114/105
f 93/148/106 92/152/106 69/117/106 70/116/106
o Cube.001
v -5.989856 -0.226291 1.208032
v -5.989856 0.226291 1.208032
v -5.989856 -0.226291 -0.149796
v -5.989856 0.226291 -0.149796
v 5.989856 -0.226291 1.208032
v 5.989856 0.226291 1.208032
v 5.989856 -0.226291 -0.149796
v 5.989856 0.226291 -0.149796
v 0.000000 -0.398248 -0.665699
v 0.000000 0.398248 -0.665699
v 0.000000 -0.398248 1.723935
v 0.000000 0.398248 1.723935
vt 0.375000 0.000000
vt 0.625000 0.000000
vt 0.625000 0.250000
vt 0.375000 0.250000
vt 0.375000 0.375000
vt 0.625000 0.375000
vt 0.625000 0.500000
vt 0.375000 0.500000
vt 0.625000 0.750000
vt 0.375000 0.750000
vt 0.375000 0.875000
vt 0.625000 0.875000
vt 0.625000 1.000000
vt 0.375000 1.000000
vt 0.250000 0.500000
vt 0.250000 0.750000
vt 0.750000 0.500000
vt 0.875000 0.500000
vt 0.875000 0.750000
vt 0.750000 0.750000
vt 0.125000 0.500000
vt 0.125000 0.750000
vn -1.0000 0.0000 0.0000
vn 0.0858 0.0000 -0.9963
vn 1.0000 0.0000 0.0000
vn -0.0858 0.0000 0.9963
vn 0.0287 -0.9996 0.0000
vn -0.0287 0.9996 0.0000
vn 0.0287 0.9996 0.0000
vn -0.0287 -0.9996 0.0000
vn 0.0858 0.0000 0.9963
vn -0.0858 0.0000 -0.9963
usemtl None
s off
f 95/156/107 96/157/107 98/158/107 97/159/107
f 103/160/108 104/161/108 102/162/108 101/163/108
f 101/163/109 102/162/109 100/164/109 99/165/109
f 105/166/110 106/167/110 96/168/110 95/169/110
f 103/170/111 101/163/111 99/165/111 105/171/111
f 104/172/112 98/173/112 96/174/112 106/175/112
f 102/162/113 104/172/113 106/175/113 100/164/113
f 97/176/114 103/170/114 105/171/114 95/177/114
f 99/165/115 100/164/115 106/167/115 105/166/115
f 97/159/116 98/158/116 104/161/116 103/160/116
o Cube.002
v 0.080468 -0.096475 13.418427
v 0.080468 0.096475 13.418427
v 0.080468 -0.096475 6.960844
v 0.080468 0.096475 6.960844
v 0.273418 -0.096475 13.418427
v 0.273418 0.096475 13.418427
v 0.273418 -0.096475 6.960844
v 0.273418 0.096475 6.960844
vt 0.375000 0.000000
vt 0.625000 0.000000
vt 0.625000 0.250000
vt 0.375000 0.250000
vt 0.625000 0.500000
vt 0.375000 0.500000
vt 0.625000 0.750000
vt 0.375000 0.750000
vt 0.625000 1.000000
vt 0.375000 1.000000
vt 0.125000 0.500000
vt 0.125000 0.750000
vt 0.875000 0.500000
vt 0.875000 0.750000
vn -1.0000 0.0000 0.0000
vn 0.0000 0.0000 -1.0000
vn 1.0000 0.0000 0.0000
vn 0.0000 0.0000 1.0000
vn 0.0000 -1.0000 0.0000
vn 0.0000 1.0000 0.0000
usemtl None
s off
f 107/178/117 108/179/117 110/180/117 109/181/117
f 109/181/118 110/180/118 114/182/118 113/183/118
f 113/183/119 114/182/119 112/184/119 111/185/119
f 111/185/120 112/184/120 108/186/120 107/187/120
f 109/188/121 113/183/121 111/185/121 107/189/121
f 114/182/122 110/190/122 108/191/122 112/184/122
